<?xml version="1.0" encoding="utf-8"?>
<!DOCTYPE svg PUBLIC "-//W3C//DTD SVG 1.1//EN" "http://www.w3.org/Graphics/SVG/1.1/DTD/svg11.dtd">
<svg version="1.1" id="Capa_1" xmlns="http://www.w3.org/2000/svg" xmlns:xlink="http://www.w3.org/1999/xlink" x="0px" y="0px"
	 width="103px" height="120px" viewBox="0 0 1766.8 2052" style="enable-background:new 0 0 1766.8 2052;" xml:space="preserve"
	>
<style type="text/css">
<![CDATA[
	.st0{fill:#402909;stroke:#402909;stroke-width:30;}
	.st1{fill:#E77E23;}
	.st2{fill:#402909;stroke:#402909;stroke-width:0.2999;}
	.st3{fill:#3E280D;}
	.st4{fill:#402909;}
	.st5{fill:none;stroke:#C17300;}
]]>
</style>
<g>
	<g>
		<path class="st2" d="M234.9,1050.8h54.3v20.4h-18.1v81.5H253v-81.5h-18.1V1050.8z"/>
		<path class="st2" d="M343.4,1111.9h-18.1v40.7h-18.1v-101.9h18.1v40.7h18.1v-40.7h18.1v101.9h-18.1V1111.9z"/>
		<path class="st2" d="M433.9,1132.3v20.4h-54.3v-101.9h54.3v20.4h-36.2v20.4h36.2v20.4h-36.2v20.4H433.9z"/>
	</g>
</g>
<path class="st0" d="M1461.1,685.5c-153.5,0-278.4,124.9-278.4,278.4v319.6v339.7v91.1c0,15.6,12.7,28.3,28.3,28.3
	c291.3,0,528.5-237.2,528.5-528.5V963.9C1739.5,810.5,1614.6,685.5,1461.1,685.5z M1239.4,1283.5c0-38,30.9-68.9,68.9-68.9
	c38.1,0,68.9,30.9,68.9,68.9v27.7c0,106.5-51.8,203.6-137.8,262.5V1283.5L1239.4,1283.5z M1682.9,1214
	c0,250.7-196.6,456.4-443.5,471v-45c120.3-66.4,194.5-190.7,194.5-328.7v-27.7c0-69.3-56.2-125.6-125.6-125.6
	c-25.4,0-49,7.6-68.9,20.7V963.9c0-122.2,99.6-221.7,221.7-221.7c122.2,0,221.8,99.5,221.8,221.7V1214L1682.9,1214z"/>
<path class="st4" d="M1374.4,936.6c0.2,0,0.4,0,0.6,0c17.5-0.4,31.5-14.8,31.3-31.9c0-17.5-14.4-31.9-32.1-31.9
	c-17.5,0-31.9,14.4-31.9,32.3c0.2,17.3,14,31.3,31.3,31.7C1374,936.6,1374.2,936.6,1374.4,936.6z"/>
<path class="st4" d="M1547.5,894c-17.5,0-31.9,4.7-31.9,10.7c0.4,5.7,14.2,10.2,31.3,10.3c0.2,0,0.4,0,0.6,0c0.2,0,0.4,0,0.6,0
	c17.5-0.1,31.5-4.9,31.3-10.5C1579.7,898.7,1565.3,894,1547.5,894z"/>
<path class="st1" d="M1461.1,948.1c-59.6,0-93.9,49.9-95.3,51.8c-6.7,10.2-6.3,23.5,1.1,33l71.9,117.5c5.3,7,13.8,11,22.4,11
	c8.7,0,17.1-4,22.4-11l71.9-117.5c7.4-9.7,7.8-23.1,1.1-33C1555,998,1520.7,948.1,1461.1,948.1z M1461.1,1086.7l-34.7-69.1
	c8.5-6.5,20.3-12.9,34.7-12.9c14.4,0,26.2,6.5,34.7,13.1L1461.1,1086.7z"/>
<path class="st4" d="M26.6,1734.7C51.5,1908,200.9,2042,381.4,2042h511.8c197.6,0,358.5-160.9,358.5-358.4V771.7
	c0-84.5-68.8-153.7-153.7-153.7H176.7C92.1,618,23,686.9,23,771.7v51.1L26.6,1734.7z M1149.5,1683.9
	c0,141.2-114.7,255.9-255.9,255.9H381.4c-141.2,0-255.9-114.7-255.9-255.9V771.7c0-28.2,22.9-51.1,51.1-51.1H1098
	c28.2,0,51.1,22.9,51.1,51.1v912.1H1149.5z"/>
<g>
	<g>
		<g>
			<g>
				<path class="st1" d="M529.1,297.7c-45.6,0-52,27.6-52,47.5c0,17.3,2.6,34.7,5.1,52c2.6,17.4,5.1,35.3,5.1,52.7
					c0,64.9-40.5,88-93.2,88h-13.5v-35.3h10.9c36-0.6,51.4-19.9,51.4-55.9c0-15.4-2.6-30.2-4.5-46.3c-2.6-15.4-5.1-31.5-5.1-48.8
					c0-41.1,18-63,46.3-70v-1.3c-28.3-7.7-46.3-28.3-46.3-69.4c0-17.3,2.6-32.8,5.1-48.8c1.9-15.4,4.5-30.8,4.5-45.6
					c0-34.7-13.5-54.6-50.8-55.3h-11.6V25.9h12.8c54.6,0,93.8,25.1,93.8,84.2c0,18-2.6,35.3-5.1,53.3c-2.6,18-5.1,36-5.1,54
					c0,22.5,6.4,47.5,52,47.5V297.7z"/>
			</g>
			<g>
				<path class="st5" d="M529.1,297.7c-45.6,0-52,27.6-52,47.5c0,17.3,2.6,34.7,5.1,52c2.6,17.4,5.1,35.3,5.1,52.7
					c0,64.9-40.5,88-93.2,88h-13.5v-35.3h10.9c36-0.6,51.4-19.9,51.4-55.9c0-15.4-2.6-30.2-4.5-46.3c-2.6-15.4-5.1-31.5-5.1-48.8
					c0-41.1,18-63,46.3-70v-1.3c-28.3-7.7-46.3-28.3-46.3-69.4c0-17.3,2.6-32.8,5.1-48.8c1.9-15.4,4.5-30.8,4.5-45.6
					c0-34.7-13.5-54.6-50.8-55.3h-11.6V25.9h12.8c54.6,0,93.8,25.1,93.8,84.2c0,18-2.6,35.3-5.1,53.3c-2.6,18-5.1,36-5.1,54
					c0,22.5,6.4,47.5,52,47.5V297.7z"/>
			</g>
		</g>
		<g>
			<g>
				<path class="st1" d="M711.6,297.7c-45.6,0-52,27.6-52,47.5c0,17.3,2.6,34.7,5.1,52c2.6,17.4,5.1,35.3,5.1,52.7
					c0,64.9-40.5,88-93.2,88h-13.5v-35.3H574c36-0.6,51.4-19.9,51.4-55.9c0-15.4-2.6-30.2-4.5-46.3c-2.6-15.4-5.2-31.5-5.2-48.8
					c0-41.1,18-63,46.3-70v-1.3c-28.3-7.7-46.3-28.3-46.3-69.4c0-17.3,2.6-32.8,5.2-48.8c1.9-15.4,4.5-30.8,4.5-45.6
					c0-34.7-13.5-54.6-50.8-55.3h-11.6V25.9H576c54.6,0,93.8,25.1,93.8,84.2c0,18-2.6,35.3-5.1,53.3c-2.6,18-5.1,36-5.1,54
					c0,22.5,6.4,47.5,52,47.5V297.7z"/>
			</g>
			<g>
				<path class="st5" d="M711.6,297.7c-45.6,0-52,27.6-52,47.5c0,17.3,2.6,34.7,5.1,52c2.6,17.4,5.1,35.3,5.1,52.7
					c0,64.9-40.5,88-93.2,88h-13.5v-35.3H574c36-0.6,51.4-19.9,51.4-55.9c0-15.4-2.6-30.2-4.5-46.3c-2.6-15.4-5.2-31.5-5.2-48.8
					c0-41.1,18-63,46.3-70v-1.3c-28.3-7.7-46.3-28.3-46.3-69.4c0-17.3,2.6-32.8,5.2-48.8c1.9-15.4,4.5-30.8,4.5-45.6
					c0-34.7-13.5-54.6-50.8-55.3h-11.6V25.9H576c54.6,0,93.8,25.1,93.8,84.2c0,18-2.6,35.3-5.1,53.3c-2.6,18-5.1,36-5.1,54
					c0,22.5,6.4,47.5,52,47.5V297.7z"/>
			</g>
		</g>
		<g>
			<g>
				<path class="st1" d="M894,297.7c-45.6,0-52,27.6-52,47.5c0,17.3,2.6,34.7,5.1,52c2.6,17.4,5.1,35.3,5.1,52.7
					c0,64.9-40.5,88-93.2,88h-13.5v-35.3h10.9c36-0.6,51.4-19.9,51.4-55.9c0-15.4-2.6-30.2-4.5-46.3c-2.6-15.4-5.2-31.5-5.2-48.8
					c0-41.1,18-63,46.3-70v-1.3c-28.3-7.7-46.3-28.3-46.3-69.4c0-17.3,2.6-32.8,5.2-48.8c1.9-15.4,4.5-30.8,4.5-45.6
					c0-34.7-13.5-54.6-50.8-55.3h-11.6V25.9h12.8c54.6,0,93.8,25.1,93.8,84.2c0,18-2.6,35.3-5.1,53.3c-2.6,18-5.1,36-5.1,54
					c0,22.5,6.4,47.5,52,47.5V297.7z"/>
			</g>
			<g>
				<path class="st5" d="M894,297.7c-45.6,0-52,27.6-52,47.5c0,17.3,2.6,34.7,5.1,52c2.6,17.4,5.1,35.3,5.1,52.7
					c0,64.9-40.5,88-93.2,88h-13.5v-35.3h10.9c36-0.6,51.4-19.9,51.4-55.9c0-15.4-2.6-30.2-4.5-46.3c-2.6-15.4-5.2-31.5-5.2-48.8
					c0-41.1,18-63,46.3-70v-1.3c-28.3-7.7-46.3-28.3-46.3-69.4c0-17.3,2.6-32.8,5.2-48.8c1.9-15.4,4.5-30.8,4.5-45.6
					c0-34.7-13.5-54.6-50.8-55.3h-11.6V25.9h12.8c54.6,0,93.8,25.1,93.8,84.2c0,18-2.6,35.3-5.1,53.3c-2.6,18-5.1,36-5.1,54
					c0,22.5,6.4,47.5,52,47.5V297.7z"/>
			</g>
		</g>
	</g>
</g>
<g>
	<path class="st1" d="M234.9,1331.2v-120.7h49.7h49.7v17.2v17.2h9.9h9.9v17.2v17.2h9.9h9.9v51.7v51.7h-9.9h-9.9v17.2v17.2h-9.9h-9.9
		v17.2v17.2h-49.7h-49.7V1331.2z M314.5,1262.3V1245h-19.9h-19.9v86.2v86.2h19.9h19.9v-17.2v-17.2h9.9h9.9v-51.7v-51.7h-9.9h-9.9
		V1262.3z"/>
	<path class="st1" d="M394.1,1331.2v-120.7h59.7h59.7v17.2v17.2h9.9h9.9v51.7v51.7h-19.9h-19.9v17.2v17.2h9.9h9.9v17.2v17.2h9.9h9.9
		v17.2v17.2h-29.8h-29.8v-17.2v-17.2h-9.9h-9.9v-17.2v-17.2h-9.9h-9.9v34.5v34.5H414h-19.9V1331.2z M493.5,1279.5V1245h-29.8h-29.8
		v51.7v51.7h19.9h19.9v-17.2V1314h9.9h9.9V1279.5z"/>
	<path class="st1" d="M573.1,1227.8v-17.2h59.7h59.7v17.2v17.2h-19.9h-19.9v86.2v86.2h19.9h19.9v17.2v17.2h-59.7h-59.7v-17.2v-17.2
		H593h19.9v-86.2V1245H593h-19.9V1227.8z"/>
	<path class="st1" d="M712.4,1331.2v-120.7h19.9h19.9v17.2v17.2h9.9h9.9v17.2v17.2h9.9h9.9v17.2v17.2h9.9h9.9v-51.7v-51.7h19.9h19.9
		v120.7v120.7h-19.9h-19.9v-17.2v-17.2h-9.9H792v-17.2v-17.2H782h-9.9v-17.2v-17.2h-9.9h-9.9v51.7v51.7h-19.9h-19.9V1331.2z"/>
	<path class="st1" d="M871.6,1331.2v-120.7h19.9h19.9v51.7v51.7h9.9h9.9v-17.2v-17.2h9.9h9.9v-17.2V1245h9.9h9.9v-17.2v-17.2h19.9
		h19.9v17.2v17.2h-9.9h-9.9v17.2v17.2H981H971v17.2v17.2h-9.9h-9.9v17.2v17.2h9.9h9.9v17.2v17.2h9.9h9.9v17.2v17.2h9.9h9.9v17.2
		v17.2H981h-29.8v-17.2v-17.2h-9.9h-9.9v-17.2v-17.2h-9.9h-9.9v34.5v34.5h-19.9h-19.9V1331.2z"/>
	<path class="st3" d="M234.9,1662.2v-120.7h59.7h59.7v17.2v17.2h9.9h9.9v34.5v34.5h-9.9h-9.9v17.2v17.2h9.9h9.9v34.5v34.5h-9.9h-9.9
		v17.2v17.2h-59.7h-59.7V1662.2z M334.4,1610.5V1576h-29.8h-29.8v34.5v34.5h29.8h29.8V1610.5z M334.4,1713.9v-34.5h-29.8h-29.8v34.5
		v34.5h29.8h29.8V1713.9z"/>
	<path class="st3" d="M414,1558.8v-17.2h59.7h59.7v17.2v17.2h-19.9h-19.9v86.2v86.2h19.9h19.9v17.2v17.2h-59.7H414v-17.2v-17.2h19.9
		h19.9v-86.2V1576h-19.9H414V1558.8z"/>
	<path class="st3" d="M553.2,1662.2v-120.7h59.7h59.7v17.2v17.2h9.9h9.9v51.7v51.7h-19.9h-19.9v17.2v17.2h9.9h9.9v17.2v17.2h9.9h9.9
		v17.2v17.2h-29.8h-29.8v-17.2v-17.2h-9.9h-9.9v-17.2v-17.2H603H593v34.5v34.5h-19.9h-19.9V1662.2z M652.7,1610.5V1576h-29.8H593
		v51.7v51.7h19.9h19.9v-17.2V1645h9.9h9.9V1610.5z"/>
	<path class="st3" d="M712.4,1662.2v-120.7h49.7h49.7v17.2v17.2h9.9h9.9v17.2v17.2h9.9h9.9v51.7v51.7h-9.9h-9.9v17.2v17.2h-9.9h-9.9
		v17.2v17.2h-49.7h-49.7V1662.2z M792,1593.2V1576h-19.9h-19.9v86.2v86.2h19.9H792v-17.2v-17.2h9.9h9.9v-51.7v-51.7h-9.9H792V1593.2
		z"/>
	<path class="st1" d="M871.6,1800.1v-17.2h69.6h69.6v17.2v17.2h-69.6h-69.6V1800.1z"/>
</g>
<g>
</g>
<g>
</g>
<g>
</g>
<g>
</g>
<g>
</g>
<g>
</g>
</svg>
