<?xml version="1.0" encoding="UTF-8" standalone="no"?>
<svg
   xmlns:dc="http://purl.org/dc/elements/1.1/"
   xmlns:cc="http://creativecommons.org/ns#"
   xmlns:rdf="http://www.w3.org/1999/02/22-rdf-syntax-ns#"
   xmlns:svg="http://www.w3.org/2000/svg"
   xmlns="http://www.w3.org/2000/svg"
   xmlns:sodipodi="http://sodipodi.sourceforge.net/DTD/sodipodi-0.dtd"
   xmlns:inkscape="http://www.inkscape.org/namespaces/inkscape"
   version="1.1"
   id="Capa_1"
   x="0px"
   y="0px"
   width="103px"
   height="120px"
   viewBox="0 0 1766.8 2052"
   style="enable-background:new 0 0 1766.8 2052;"
   xml:space="preserve"
   sodipodi:docname="db.svg"
   inkscape:version="0.92.2 (5c3e80d, 2017-08-06)"><metadata
     id="metadata3911"><rdf:RDF><cc:Work
         rdf:about=""><dc:format>image/svg+xml</dc:format><dc:type
           rdf:resource="http://purl.org/dc/dcmitype/StillImage" /></cc:Work></rdf:RDF></metadata><defs
     id="defs3909" /><sodipodi:namedview
     pagecolor="#ffffff"
     bordercolor="#666666"
     borderopacity="1"
     objecttolerance="10"
     gridtolerance="10"
     guidetolerance="10"
     inkscape:pageopacity="0"
     inkscape:pageshadow="2"
     inkscape:window-width="2560"
     inkscape:window-height="1377"
     id="namedview3907"
     showgrid="false"
     inkscape:snap-smooth-nodes="false"
     inkscape:object-paths="true"
     inkscape:zoom="10.066667"
     inkscape:cx="35.357616"
     inkscape:cy="60"
     inkscape:window-x="3832"
     inkscape:window-y="-8"
     inkscape:window-maximized="1"
     inkscape:current-layer="layer2" /><style
     type="text/css"
     id="style3816"><![CDATA[
	.st0{fill:#402909;stroke:#402909;stroke-width:30;}
	.st1{fill:#E77E23;}
	.st2{fill:#402909;stroke:#402909;stroke-width:0.2999;}
	.st3{fill:#3E280D;}
	.st4{fill:#402909;}
	.st5{fill:none;stroke:#C17300;}
]]></style><path
     style="fill:#ffffff;stroke:#402909;stroke-width:1;fill-opacity:1"
     inkscape:connector-curvature="0"
     class="st0"
     d="m 1461.1,685.5 c -153.5,0 -278.4,124.9 -278.4,278.40001 V 1283.5 v 339.7001 91.1 c 0,15.6 12.7,28.3 28.3,28.3 291.3001,0 528.5001,-237.2 528.5001,-528.5001 V 963.90001 C 1739.5001,810.5 1614.6001,685.5 1461.1,685.5 Z m -221.7,598 c 0,-38 30.9,-68.9 68.9,-68.9 38.1,0 68.9,30.9 68.9,68.9 v 27.7 c 0,106.5 -51.8,203.6001 -137.8,262.5001 z"
     id="path3828-0"
     sodipodi:nodetypes="ssccssssssssscs" /><path
     class="st0"
     d="M1461.1,685.5c-153.5,0-278.4,124.9-278.4,278.4v319.6v339.7v91.1c0,15.6,12.7,28.3,28.3,28.3  c291.3,0,528.5-237.2,528.5-528.5V963.9C1739.5,810.5,1614.6,685.5,1461.1,685.5z M1239.4,1283.5c0-38,30.9-68.9,68.9-68.9  c38.1,0,68.9,30.9,68.9,68.9v27.7c0,106.5-51.8,203.6-137.8,262.5V1283.5L1239.4,1283.5z M1682.9,1214  c0,250.7-196.6,456.4-443.5,471v-45c120.3-66.4,194.5-190.7,194.5-328.7v-27.7c0-69.3-56.2-125.6-125.6-125.6  c-25.4,0-49,7.6-68.9,20.7V963.9c0-122.2,99.6-221.7,221.7-221.7c122.2,0,221.8,99.5,221.8,221.7V1214L1682.9,1214z"
     id="path3828" /><path
     class="st4"
     d="M1374.4,936.6c0.2,0,0.4,0,0.6,0c17.5-0.4,31.5-14.8,31.3-31.9c0-17.5-14.4-31.9-32.1-31.9  c-17.5,0-31.9,14.4-31.9,32.3c0.2,17.3,14,31.3,31.3,31.7C1374,936.6,1374.2,936.6,1374.4,936.6z"
     id="path3830" /><path
     class="st4"
     d="M1547.5,894c-17.5,0-31.9,4.7-31.9,10.7c0.4,5.7,14.2,10.2,31.3,10.3c0.2,0,0.4,0,0.6,0c0.2,0,0.4,0,0.6,0  c17.5-0.1,31.5-4.9,31.3-10.5C1579.7,898.7,1565.3,894,1547.5,894z"
     id="path3832" /><path
     class="st1"
     d="M1461.1,948.1c-59.6,0-93.9,49.9-95.3,51.8c-6.7,10.2-6.3,23.5,1.1,33l71.9,117.5c5.3,7,13.8,11,22.4,11  c8.7,0,17.1-4,22.4-11l71.9-117.5c7.4-9.7,7.8-23.1,1.1-33C1555,998,1520.7,948.1,1461.1,948.1z M1461.1,1086.7l-34.7-69.1  c8.5-6.5,20.3-12.9,34.7-12.9c14.4,0,26.2,6.5,34.7,13.1L1461.1,1086.7z"
     id="path3834" /><g
     id="g3870"><g
       id="g3868"><g
         id="g3846"><g
           id="g3840"><path
             class="st1"
             d="M529.1,297.7c-45.6,0-52,27.6-52,47.5c0,17.3,2.6,34.7,5.1,52c2.6,17.4,5.1,35.3,5.1,52.7      c0,64.9-40.5,88-93.2,88h-13.5v-35.3h10.9c36-0.6,51.4-19.9,51.4-55.9c0-15.4-2.6-30.2-4.5-46.3c-2.6-15.4-5.1-31.5-5.1-48.8      c0-41.1,18-63,46.3-70v-1.3c-28.3-7.7-46.3-28.3-46.3-69.4c0-17.3,2.6-32.8,5.1-48.8c1.9-15.4,4.5-30.8,4.5-45.6      c0-34.7-13.5-54.6-50.8-55.3h-11.6V25.9h12.8c54.6,0,93.8,25.1,93.8,84.2c0,18-2.6,35.3-5.1,53.3c-2.6,18-5.1,36-5.1,54      c0,22.5,6.4,47.5,52,47.5V297.7z"
             id="path3838" /></g><g
           id="g3844"><path
             class="st5"
             d="M529.1,297.7c-45.6,0-52,27.6-52,47.5c0,17.3,2.6,34.7,5.1,52c2.6,17.4,5.1,35.3,5.1,52.7      c0,64.9-40.5,88-93.2,88h-13.5v-35.3h10.9c36-0.6,51.4-19.9,51.4-55.9c0-15.4-2.6-30.2-4.5-46.3c-2.6-15.4-5.1-31.5-5.1-48.8      c0-41.1,18-63,46.3-70v-1.3c-28.3-7.7-46.3-28.3-46.3-69.4c0-17.3,2.6-32.8,5.1-48.8c1.9-15.4,4.5-30.8,4.5-45.6      c0-34.7-13.5-54.6-50.8-55.3h-11.6V25.9h12.8c54.6,0,93.8,25.1,93.8,84.2c0,18-2.6,35.3-5.1,53.3c-2.6,18-5.1,36-5.1,54      c0,22.5,6.4,47.5,52,47.5V297.7z"
             id="path3842" /></g></g><g
         id="g3856"><g
           id="g3850"><path
             class="st1"
             d="M711.6,297.7c-45.6,0-52,27.6-52,47.5c0,17.3,2.6,34.7,5.1,52c2.6,17.4,5.1,35.3,5.1,52.7      c0,64.9-40.5,88-93.2,88h-13.5v-35.3H574c36-0.6,51.4-19.9,51.4-55.9c0-15.4-2.6-30.2-4.5-46.3c-2.6-15.4-5.2-31.5-5.2-48.8      c0-41.1,18-63,46.3-70v-1.3c-28.3-7.7-46.3-28.3-46.3-69.4c0-17.3,2.6-32.8,5.2-48.8c1.9-15.4,4.5-30.8,4.5-45.6      c0-34.7-13.5-54.6-50.8-55.3h-11.6V25.9H576c54.6,0,93.8,25.1,93.8,84.2c0,18-2.6,35.3-5.1,53.3c-2.6,18-5.1,36-5.1,54      c0,22.5,6.4,47.5,52,47.5V297.7z"
             id="path3848" /></g><g
           id="g3854"><path
             class="st5"
             d="M711.6,297.7c-45.6,0-52,27.6-52,47.5c0,17.3,2.6,34.7,5.1,52c2.6,17.4,5.1,35.3,5.1,52.7      c0,64.9-40.5,88-93.2,88h-13.5v-35.3H574c36-0.6,51.4-19.9,51.4-55.9c0-15.4-2.6-30.2-4.5-46.3c-2.6-15.4-5.2-31.5-5.2-48.8      c0-41.1,18-63,46.3-70v-1.3c-28.3-7.7-46.3-28.3-46.3-69.4c0-17.3,2.6-32.8,5.2-48.8c1.9-15.4,4.5-30.8,4.5-45.6      c0-34.7-13.5-54.6-50.8-55.3h-11.6V25.9H576c54.6,0,93.8,25.1,93.8,84.2c0,18-2.6,35.3-5.1,53.3c-2.6,18-5.1,36-5.1,54      c0,22.5,6.4,47.5,52,47.5V297.7z"
             id="path3852" /></g></g><g
         id="g3866"><g
           id="g3860"><path
             class="st1"
             d="M894,297.7c-45.6,0-52,27.6-52,47.5c0,17.3,2.6,34.7,5.1,52c2.6,17.4,5.1,35.3,5.1,52.7      c0,64.9-40.5,88-93.2,88h-13.5v-35.3h10.9c36-0.6,51.4-19.9,51.4-55.9c0-15.4-2.6-30.2-4.5-46.3c-2.6-15.4-5.2-31.5-5.2-48.8      c0-41.1,18-63,46.3-70v-1.3c-28.3-7.7-46.3-28.3-46.3-69.4c0-17.3,2.6-32.8,5.2-48.8c1.9-15.4,4.5-30.8,4.5-45.6      c0-34.7-13.5-54.6-50.8-55.3h-11.6V25.9h12.8c54.6,0,93.8,25.1,93.8,84.2c0,18-2.6,35.3-5.1,53.3c-2.6,18-5.1,36-5.1,54      c0,22.5,6.4,47.5,52,47.5V297.7z"
             id="path3858" /></g><g
           id="g3864"><path
             class="st5"
             d="M894,297.7c-45.6,0-52,27.6-52,47.5c0,17.3,2.6,34.7,5.1,52c2.6,17.4,5.1,35.3,5.1,52.7      c0,64.9-40.5,88-93.2,88h-13.5v-35.3h10.9c36-0.6,51.4-19.9,51.4-55.9c0-15.4-2.6-30.2-4.5-46.3c-2.6-15.4-5.2-31.5-5.2-48.8      c0-41.1,18-63,46.3-70v-1.3c-28.3-7.7-46.3-28.3-46.3-69.4c0-17.3,2.6-32.8,5.2-48.8c1.9-15.4,4.5-30.8,4.5-45.6      c0-34.7-13.5-54.6-50.8-55.3h-11.6V25.9h12.8c54.6,0,93.8,25.1,93.8,84.2c0,18-2.6,35.3-5.1,53.3c-2.6,18-5.1,36-5.1,54      c0,22.5,6.4,47.5,52,47.5V297.7z"
             id="path3862" /></g></g></g></g><g
     id="g3894" /><g
     id="g3896" /><g
     id="g3898" /><g
     id="g3900" /><g
     id="g3902" /><g
     id="g3904" /><g
     inkscape:groupmode="layer"
     id="layer2"
     inkscape:label="Top"
     style="display:inline"><path
       style="opacity:1;fill:#ffffff;fill-opacity:0.98994978;stroke-width:0.96442473"
       inkscape:connector-curvature="0"
       class="st4"
       d="M 53.723888,1717.3647 C 77.657,1885.0657 221.25568,2014.7363 394.74673,2014.7363 h 491.92641 c 189.92706,0 344.57916,-155.7015 344.57916,-346.8205 V 785.47789 c 0,-81.76992 -66.1284,-148.73416 -147.7316,-148.73416 H 197.99539 c -81.31492,0 -147.731711,66.67394 -147.731711,148.73416 v 49.44904 z"
       id="path3836-8"
       sodipodi:nodetypes="cssssssscc" /><g
       id="g3826"><g
         id="g3824"><path
           class="st2"
           d="m 234.9,1050.8 h 54.3 v 20.4 h -18.1 v 81.5 H 253 v -81.5 h -18.1 z"
           id="path3818"
           inkscape:connector-curvature="0"
           style="fill:#402909;stroke:#402909;stroke-width:0.2999" /><path
           class="st2"
           d="m 343.4,1111.9 h -18.1 v 40.7 h -18.1 v -101.9 h 18.1 v 40.7 h 18.1 v -40.7 h 18.1 v 101.9 h -18.1 z"
           id="path3820"
           inkscape:connector-curvature="0"
           style="fill:#402909;stroke:#402909;stroke-width:0.2999" /><path
           class="st2"
           d="m 433.9,1132.3 v 20.4 h -54.3 v -101.9 h 54.3 v 20.4 h -36.2 v 20.4 h 36.2 v 20.4 h -36.2 v 20.4 h 36.2 z"
           id="path3822"
           inkscape:connector-curvature="0"
           style="fill:#402909;stroke:#402909;stroke-width:0.2999" /></g></g><path
       style="fill:#402909"
       class="st4"
       d="M 26.6,1734.7 C 51.5,1908 200.9,2042 381.4,2042 h 511.8 c 197.6,0 358.5,-160.9 358.5,-358.4 V 771.7 C 1251.7,687.2 1182.9,618 1098,618 H 176.7 C 92.1,618 23,686.9 23,771.7 v 51.1 z m 1122.9,-50.8 c 0,141.2 -114.7,255.9 -255.9,255.9 H 381.4 c -141.2,0 -255.9,-114.7 -255.9,-255.9 V 771.7 c 0,-28.2 22.9,-51.1 51.1,-51.1 H 1098 c 28.2,0 51.1,22.9 51.1,51.1 v 912.1 h 0.4 z"
       id="path3836"
       inkscape:connector-curvature="0" /><g
       id="g3892"><path
         class="st1"
         d="m 234.9,1331.2 v -120.7 h 49.7 49.7 v 17.2 17.2 h 9.9 9.9 v 17.2 17.2 h 9.9 9.9 v 51.7 51.7 h -9.9 -9.9 v 17.2 17.2 h -9.9 -9.9 v 17.2 17.2 h -49.7 -49.7 z m 79.6,-68.9 V 1245 h -19.9 -19.9 v 86.2 86.2 h 19.9 19.9 v -17.2 -17.2 h 9.9 9.9 v -51.7 -51.7 h -9.9 -9.9 z"
         id="path3872"
         inkscape:connector-curvature="0"
         style="fill:#e77e23" /><path
         class="st1"
         d="m 394.1,1331.2 v -120.7 h 59.7 59.7 v 17.2 17.2 h 9.9 9.9 v 51.7 51.7 h -19.9 -19.9 v 17.2 17.2 h 9.9 9.9 v 17.2 17.2 h 9.9 9.9 v 17.2 17.2 h -29.8 -29.8 v -17.2 -17.2 h -9.9 -9.9 v -17.2 -17.2 h -9.9 -9.9 v 34.5 34.5 H 414 394.1 Z m 99.4,-51.7 V 1245 h -29.8 -29.8 v 51.7 51.7 h 19.9 19.9 v -17.2 -17.2 h 9.9 9.9 z"
         id="path3874"
         inkscape:connector-curvature="0"
         style="fill:#e77e23" /><path
         class="st1"
         d="m 573.1,1227.8 v -17.2 h 59.7 59.7 v 17.2 17.2 h -19.9 -19.9 v 86.2 86.2 h 19.9 19.9 v 17.2 17.2 h -59.7 -59.7 v -17.2 -17.2 H 593 612.9 V 1331.2 1245 H 593 573.1 Z"
         id="path3876"
         inkscape:connector-curvature="0"
         style="fill:#e77e23" /><path
         class="st1"
         d="m 712.4,1331.2 v -120.7 h 19.9 19.9 v 17.2 17.2 h 9.9 9.9 v 17.2 17.2 h 9.9 9.9 v 17.2 17.2 h 9.9 9.9 v -51.7 -51.7 h 19.9 19.9 v 120.7 120.7 h -19.9 -19.9 v -17.2 -17.2 h -9.9 -9.7 v -17.2 -17.2 h -10 -9.9 v -17.2 -17.2 h -9.9 -9.9 v 51.7 51.7 h -19.9 -19.9 v -120.7 z"
         id="path3878"
         inkscape:connector-curvature="0"
         style="fill:#e77e23" /><path
         class="st1"
         d="m 871.6,1331.2 v -120.7 h 19.9 19.9 v 51.7 51.7 h 9.9 9.9 v -17.2 -17.2 h 9.9 9.9 v -17.2 -17.3 h 9.9 9.9 v -17.2 -17.2 h 19.9 19.9 v 17.2 17.2 h -9.9 -9.9 v 17.2 17.2 H 981 971 v 17.2 17.2 h -9.9 -9.9 v 17.2 17.2 h 9.9 9.9 v 17.2 17.2 h 9.9 9.9 v 17.2 17.2 h 9.9 9.9 v 17.2 17.2 H 981 951.2 v -17.2 -17.2 h -9.9 -9.9 v -17.2 -17.2 h -9.9 -9.9 v 34.5 34.5 h -19.9 -19.9 v -120.4 z"
         id="path3880"
         inkscape:connector-curvature="0"
         style="fill:#e77e23" /><path
         class="st3"
         d="m 234.9,1662.2 v -120.7 h 59.7 59.7 v 17.2 17.2 h 9.9 9.9 v 34.5 34.5 h -9.9 -9.9 v 17.2 17.2 h 9.9 9.9 v 34.5 34.5 h -9.9 -9.9 v 17.2 17.2 h -59.7 -59.7 z m 99.5,-51.7 V 1576 h -29.8 -29.8 v 34.5 34.5 h 29.8 29.8 z m 0,103.4 v -34.5 h -29.8 -29.8 v 34.5 34.5 h 29.8 29.8 z"
         id="path3882"
         inkscape:connector-curvature="0"
         style="fill:#3e280d" /><path
         class="st3"
         d="m 414,1558.8 v -17.2 h 59.7 59.7 v 17.2 17.2 h -19.9 -19.9 v 86.2 86.2 h 19.9 19.9 v 17.2 17.2 H 473.7 414 v -17.2 -17.2 h 19.9 19.9 V 1662.2 1576 H 433.9 414 Z"
         id="path3884"
         inkscape:connector-curvature="0"
         style="fill:#3e280d" /><path
         class="st3"
         d="m 553.2,1662.2 v -120.7 h 59.7 59.7 v 17.2 17.2 h 9.9 9.9 v 51.7 51.7 h -19.9 -19.9 v 17.2 17.2 h 9.9 9.9 v 17.2 17.2 h 9.9 9.9 v 17.2 17.2 h -29.8 -29.8 v -17.2 -17.2 h -9.9 -9.9 v -17.2 -17.2 H 603 593 v 34.5 34.5 h -19.9 -19.9 z m 99.5,-51.7 V 1576 H 622.9 593 v 51.7 51.7 h 19.9 19.9 v -17.2 -17.2 h 9.9 9.9 v -34.5 z"
         id="path3886"
         inkscape:connector-curvature="0"
         style="fill:#3e280d" /><path
         class="st3"
         d="m 712.4,1662.2 v -120.7 h 49.7 49.7 v 17.2 17.2 h 9.9 9.9 v 17.2 17.2 h 9.9 9.9 v 51.7 51.7 h -9.9 -9.9 v 17.2 17.2 h -9.9 -9.9 v 17.2 17.2 h -49.7 -49.7 z m 79.6,-69 V 1576 h -19.9 -19.9 v 86.2 86.2 h 19.9 19.9 v -17.2 -17.2 h 9.9 9.9 v -51.7 -51.7 h -9.9 -9.9 z"
         id="path3888"
         inkscape:connector-curvature="0"
         style="fill:#3e280d" /><path
         class="st1"
         d="m 871.6,1800.1 v -17.2 h 69.6 69.6 v 17.2 17.2 h -69.6 -69.6 z"
         id="path3890"
         inkscape:connector-curvature="0"
         style="fill:#e77e23" /></g></g></svg>